<svg width="1310" height="511" viewBox="0 0 1310 511" fill="none" xmlns="http://www.w3.org/2000/svg">
<path d="M18.5167 116.142C23.6677 114.781 26.0569 111.282 24.8884 106.862C23.996 103.486 20.9564 102.13 16.3771 101.851L14.0444 101.76C11.6585 101.609 10.2799 101.042 9.86591 99.4758C9.39669 97.7008 10.6777 96.2079 13.1488 95.5546C14.9586 95.0762 17.0457 95.083 19.41 95.5751L20.1297 91.9591C10.733 89.9375 4.16009 94.6539 5.81939 100.508C6.66584 103.71 9.16892 105.432 13.3542 105.629L15.6613 105.764C18.7381 105.993 20.3327 106.39 20.7835 108.096C21.3079 110.08 20.0637 111.712 17.5578 112.374C15.0867 113.028 12.3528 112.968 9.41642 112.143L8.76107 116.003C12.3095 116.89 15.5583 116.925 18.5167 116.142ZM32.7117 94.2186C30.2057 94.881 28.3895 96.1803 27.2721 98.1514C26.1547 100.122 25.9227 102.343 26.5943 104.884C27.2751 107.46 28.6185 109.302 30.6335 110.445C32.6833 111.578 34.9392 111.801 37.4451 111.139C39.777 110.522 41.8205 109.237 43.5848 107.319L41.8106 105.256C40.46 106.767 38.8578 107.749 37.0131 108.237C34.0896 109.01 31.4717 107.84 30.274 105.14L42.8036 101.828C42.3276 98.9005 41.1635 96.7506 39.3369 95.3344C37.5103 93.9182 35.2872 93.5377 32.7117 94.2186ZM29.6555 102.66C29.5152 100.016 30.9366 97.9274 33.4425 97.265C35.9832 96.5933 38.1211 97.7783 38.7835 100.284L29.6555 102.66ZM56.3865 102.147C55.7752 102.793 55.0995 103.195 54.299 103.407C52.8024 103.802 51.8323 103.091 51.3631 101.316L49.3298 93.6237L53.75 92.4553L53.1143 89.3465L48.5202 90.5609L47.2597 85.7927L44.1773 87.0916L44.9005 91.5178L42.4426 92.5027L43.1694 95.2522L45.7101 94.5806L47.771 102.377C48.7003 105.892 51.2454 107.491 54.4822 106.635C55.944 106.249 57.2002 105.507 58.2763 104.366L56.3865 102.147ZM77.8495 83.8876C76.3993 83.1911 74.7739 83.0995 72.9293 83.5871C70.319 84.2772 68.4075 85.6389 67.2205 87.6283C66.0335 89.6177 65.7851 91.9176 66.4659 94.4931C67.1375 97.0339 68.3325 98.8777 70.0947 100.05C71.8569 101.223 73.8691 101.51 76.0618 100.931C78.3937 100.314 80.3287 98.7599 81.1329 96.8717L81.989 98.8424L85.191 97.9959L80.9587 81.9859L77.7567 82.8323L77.8495 83.8876ZM76.1899 97.4709C73.4403 98.1977 71.062 96.6667 70.2432 93.5691C69.3876 90.3323 70.931 87.5784 74.0286 86.7595C75.734 86.3087 77.167 86.3767 78.3879 86.9104L79.6484 91.6786C80.3752 94.4282 79.009 96.7257 76.1899 97.4709ZM106.468 76.3224C105.018 75.6259 103.392 75.5342 101.548 76.0219C98.9375 76.7119 97.026 78.0736 95.839 80.0631C94.6521 82.0525 94.4036 84.3524 95.0844 86.9279C95.7193 89.3294 96.8958 91.1036 98.6488 92.2414C100.402 93.3792 102.37 93.6409 104.563 93.0612C106.929 92.4356 108.813 90.9694 109.566 89.1692L109.907 90.457C110.762 93.6938 109.312 96.2369 106.11 97.0834C104.405 97.5342 102.378 97.4741 100.056 96.8592L99.4783 100.028C102.204 100.76 104.78 100.786 107.251 100.133C109.862 99.4429 111.703 98.0996 112.812 96.0938C113.955 94.0787 114.159 91.7532 113.451 89.0733L109.577 74.4206L106.375 75.2671L106.468 76.3224ZM104.799 89.8708C102.05 90.5977 99.6622 89.0318 98.8525 85.969C97.9785 82.6626 99.5311 79.9435 102.629 79.1247C104.334 78.6738 105.767 78.7419 106.997 79.3104L108.249 84.0438C108.985 86.8281 107.618 89.1256 104.799 89.8708ZM131.047 83.9005C132.164 81.9295 132.387 79.6736 131.715 77.1329C131.044 74.5922 129.735 72.7411 127.79 71.5798C125.844 70.4184 123.623 70.1863 121.117 70.8487C118.611 71.5112 116.804 72.8453 115.652 74.8255C114.535 76.7966 114.303 79.0176 114.974 81.5584C115.646 84.0991 116.954 85.9501 118.9 87.1115C120.88 88.2637 123.101 88.4958 125.607 87.8333C128.113 87.1709 129.929 85.8716 131.047 83.9005ZM128.174 78.1062C128.984 81.169 127.499 83.7213 124.68 84.4665C123.253 84.8437 121.985 84.6949 120.831 83.9944C119.678 83.2939 118.894 82.1605 118.533 80.6547C117.696 77.4875 119.181 74.9352 121.966 74.1992C124.785 73.4539 127.337 74.939 128.174 78.1062ZM145.555 65.9898C144.105 65.2933 142.48 65.2017 140.635 65.6893C138.025 66.3793 136.113 67.741 134.926 69.7305C133.739 71.7199 133.491 74.0198 134.171 76.5953C134.843 79.136 136.038 80.9799 137.8 82.1525C139.562 83.325 141.575 83.6123 143.767 83.0327C146.099 82.4162 148.034 80.8621 148.838 78.9739L149.695 80.9445L152.897 80.0981L148.664 64.088L145.462 64.9345L145.555 65.9898ZM143.895 79.5731C141.146 80.2999 138.768 78.7689 137.949 75.6713C137.093 72.4344 138.637 69.6805 141.734 68.8617C143.44 68.4109 144.873 68.4789 146.093 69.0126L147.354 73.7808C148.081 76.5304 146.715 78.8278 143.895 79.5731ZM160.772 78.0163L154.635 54.8017L151.126 56.1763L157.152 78.9732L160.772 78.0163ZM165.813 71.098C164.247 71.512 163.479 72.8322 163.893 74.3984C164.27 75.8254 165.398 76.5699 166.922 76.2787C167.038 77.7005 166.805 79.2142 166.259 80.8108L167.992 81.1717C169.378 78.385 169.709 75.6911 169.009 73.0459C168.595 71.4797 167.31 70.7024 165.813 71.098ZM195.659 51.1438C193.501 51.7142 192.095 53.0168 191.485 55.077C190.044 53.708 187.967 53.1771 186.018 53.6923C184.034 54.2168 182.696 55.3525 181.925 57.0831L181.111 54.9896L178.01 56.2189L182.27 72.3334L185.889 71.3765L183.424 62.0489C182.789 59.6474 183.622 58.012 185.676 57.4692C187.764 56.9172 189.341 57.9525 189.967 60.3192L192.432 69.6468L195.913 68.7268L193.447 59.3992C192.812 56.9977 193.611 55.3715 195.665 54.8287C197.753 54.2766 199.312 55.2424 199.91 57.5047L202.421 67.0063L206.041 66.0494L203.354 55.8865C202.361 52.1276 199.278 50.1869 195.659 51.1438ZM218.529 46.6993C217.079 46.0028 215.453 45.9112 213.609 46.3988C210.998 47.0888 209.087 48.4506 207.9 50.44C206.713 52.4294 206.464 54.7293 207.145 57.3048C207.817 59.8455 209.012 61.6894 210.774 62.862C212.536 64.0345 214.548 64.3218 216.741 63.7422C219.073 63.1258 221.008 61.5716 221.812 59.6834L222.668 61.654L225.87 60.8076L221.638 44.7975L218.436 45.644L218.529 46.6993ZM216.869 60.2826C214.12 61.0094 211.741 59.4784 210.923 56.3808C210.067 53.144 211.61 50.39 214.708 49.5712C216.413 49.1204 217.846 49.1884 219.067 49.7221L220.328 54.4903C221.055 57.2399 219.688 59.5373 216.869 60.2826ZM244.848 55.7909L236.035 47.8061L240.198 39.8912L235.882 41.0321L231.307 49.5027L227.609 35.5113L224.099 36.8858L230.126 59.6827L233.745 58.7258L232.595 54.3753L234.332 51.0861L240.671 56.8949L244.848 55.7909ZM249.56 36.8952C247.054 37.5576 245.238 38.8569 244.12 40.828C243.003 42.799 242.771 45.0201 243.442 47.5608C244.123 50.1363 245.467 51.9782 247.482 53.1211C249.531 54.2549 251.787 54.4778 254.293 53.8154C256.625 53.1989 258.669 51.914 260.433 49.9954L258.659 47.9323C257.308 49.4437 255.706 50.4258 253.861 50.9134C250.938 51.6862 248.32 50.5164 247.122 47.8169L259.652 44.5047C259.176 41.5771 258.012 39.4272 256.185 38.011C254.358 36.5948 252.135 36.2143 249.56 36.8952ZM246.504 45.3366C246.363 42.6926 247.785 40.604 250.291 39.9416C252.831 39.2699 254.969 40.4549 255.632 42.9608L246.504 45.3366ZM29.9367 152.582C29.3255 153.228 28.6498 153.63 27.8493 153.841C26.3527 154.237 25.3826 153.525 24.9133 151.75L22.88 144.058L27.3002 142.89L26.6646 139.781L22.0704 140.996L20.8099 136.227L17.7275 137.526L18.4507 141.952L15.9928 142.937L16.7196 145.687L19.2604 145.015L21.3213 152.811C22.2505 156.327 24.7956 157.925 28.0324 157.07C29.4942 156.683 30.7504 155.942 31.8265 154.801L29.9367 152.582ZM38.4745 136.138C36.4211 136.681 35.0041 137.8 34.1887 139.505L31.861 130.699L28.3517 132.074L34.3781 154.871L37.9977 153.914L35.578 144.76C34.9248 142.289 35.9049 140.504 38.3064 139.869C40.7079 139.234 42.4773 140.293 43.1306 142.764L45.5503 151.918L49.17 150.961L46.5294 140.972C45.4898 137.039 42.2682 135.135 38.4745 136.138ZM61.6643 131.609C60.2142 130.912 58.5888 130.821 56.7441 131.308C54.1338 131.998 52.2223 133.36 51.0354 135.35C49.8484 137.339 49.5999 139.639 50.2807 142.214C50.9524 144.755 52.1473 146.599 53.9095 147.772C55.6717 148.944 57.6839 149.231 59.8766 148.652C62.2085 148.035 64.1436 146.481 64.9477 144.593L65.8038 146.564L69.0058 145.717L64.7736 129.707L61.5716 130.554L61.6643 131.609ZM60.0047 145.192C57.2551 145.919 54.8769 144.388 54.058 141.29C53.2024 138.054 54.7458 135.3 57.8434 134.481C59.5488 134.03 60.9818 134.098 62.2028 134.632L63.4632 139.4C64.1901 142.149 62.8239 144.447 60.0047 145.192ZM81.8375 138.862C81.2263 139.508 80.5506 139.91 79.7501 140.121C78.2535 140.517 77.2834 139.805 76.8141 138.03L74.7808 130.339L79.201 129.17L78.5654 126.061L73.9712 127.276L72.7107 122.508L69.6283 123.806L70.3515 128.233L67.8936 129.217L68.6204 131.967L71.1612 131.295L73.2221 139.092C74.1513 142.607 76.6964 144.205 79.9332 143.35C81.395 142.963 82.6512 142.222 83.7273 141.081L81.8375 138.862ZM99.0764 120.118C96.9534 120.679 95.476 121.852 94.723 123.652L93.821 121.507L90.7202 122.736L94.98 138.851L98.5997 137.894L96.1799 128.74C95.5267 126.269 96.5416 124.474 98.9083 123.849C101.275 123.223 102.991 124.222 103.626 126.623L106.083 135.916L109.737 134.95L107.051 124.787C106.057 121.028 102.835 119.124 99.0764 120.118ZM116.929 115.399C114.423 116.061 112.607 117.36 111.49 119.331C110.372 121.302 110.14 123.523 110.812 126.064C111.493 128.64 112.836 130.482 114.851 131.624C116.901 132.758 119.157 132.981 121.663 132.319C123.995 131.702 126.038 130.417 127.802 128.499L126.028 126.436C124.678 127.947 123.075 128.929 121.231 129.417C118.307 130.19 115.689 129.02 114.492 126.32L127.021 123.008C126.545 120.08 125.381 117.931 123.554 116.514C121.728 115.098 119.505 114.718 116.929 115.399ZM113.873 123.84C113.733 121.196 115.154 119.107 117.66 118.445C120.201 117.773 122.339 118.958 123.001 121.464L113.873 123.84ZM145.907 119.84L139.461 109.964L136.676 110.7L135.98 122.576L129.607 112.271L125.748 113.589L135.375 128.173L138.646 127.308L139.541 115.9L145.955 125.376L149.227 124.511L150.354 107.084L146.387 108.133L145.907 119.84ZM170.798 113.968L162.816 103.492L158.887 104.828L170.145 118.683L168.92 126.864L172.644 125.88L176.254 100.237L172.217 101.305L170.798 113.968ZM185.179 97.3569C182.673 98.0194 180.856 99.3187 179.739 101.29C178.622 103.261 178.39 105.482 179.061 108.023C179.742 110.598 181.085 112.44 183.1 113.583C185.15 114.717 187.406 114.94 189.912 114.277C192.244 113.661 194.287 112.376 196.052 110.457L194.278 108.394C192.927 109.905 191.325 110.888 189.48 111.375C186.557 112.148 183.939 110.978 182.741 108.279L195.271 104.966C194.795 102.039 193.63 99.889 191.804 98.4728C189.977 97.0566 187.754 96.6761 185.179 97.3569ZM182.122 105.798C181.982 103.154 183.404 101.066 185.909 100.403C188.45 99.7317 190.588 100.917 191.25 103.423L182.122 105.798ZM208.768 92.7224C207.317 92.0259 205.692 91.9342 203.847 92.4219C201.237 93.1119 199.326 94.4736 198.139 96.4631C196.952 98.4525 196.703 100.752 197.384 103.328C198.056 105.869 199.251 107.712 201.013 108.885C202.775 110.058 204.787 110.345 206.98 109.765C209.312 109.149 211.247 107.595 212.051 105.706L212.907 107.677L216.109 106.831L211.877 90.8206L208.675 91.6671L208.768 92.7224ZM207.108 106.306C204.358 107.032 201.98 105.501 201.161 102.404C200.306 99.167 201.849 96.4131 204.947 95.5943C206.652 95.1435 208.085 95.2115 209.306 95.7452L210.566 100.513C211.293 103.263 209.927 105.56 207.108 106.306ZM224.426 86.9819C222.199 87.5708 220.793 88.8733 220.199 90.8547L219.205 88.362L216.114 89.6261L220.364 105.706L223.984 104.749L221.868 96.7439C221.068 93.7159 222.313 91.5249 225.237 90.752C225.619 90.6508 226.125 90.5916 226.744 90.5396L226.108 86.7235C225.628 86.7387 225.087 86.8071 224.426 86.9819ZM226.723 79.188L228.784 86.9842L230.803 86.4506L230.343 78.2311L226.723 79.188ZM245.388 94.2501C245.71 95.4682 244.973 96.4823 243.476 96.8779C241.98 97.2736 239.953 97.2135 237.457 96.6446L236.861 99.7438C239.473 100.468 241.91 100.532 244.207 99.9243C247.931 98.9399 249.834 96.2772 249.052 93.3188C248.353 90.6737 246.516 89.7815 242.845 89.5602L241.421 89.527C239.647 89.4374 238.874 89.0461 238.625 88.1064C238.34 87.0274 239.105 86.1177 240.532 85.7405C242.029 85.3449 243.619 85.4457 245.26 86.0174L245.832 83.1107C243.763 82.4662 241.666 82.4245 239.474 83.0042C236.028 83.915 234.202 86.4457 234.947 89.2648C235.582 91.6664 237.34 92.5421 240.809 92.705L242.198 92.7474C244.199 92.8515 245.13 93.2755 245.388 94.2501ZM36.1559 180.193C33.9285 180.782 32.5227 182.085 31.9293 184.066L30.9353 181.574L27.8437 182.838L32.0943 198.917L35.714 197.96L33.5978 189.955C32.7974 186.927 34.0428 184.736 36.9664 183.964C37.3492 183.862 37.8549 183.803 38.4742 183.751L37.8378 179.935C37.3577 179.95 36.8172 180.019 36.1559 180.193ZM47.7896 177.118C45.2837 177.781 43.4674 179.08 42.3501 181.051C41.2327 183.022 41.0006 185.243 41.6723 187.784C42.3531 190.359 43.6964 192.201 45.7114 193.344C47.7613 194.478 50.0172 194.701 52.5231 194.038C54.855 193.422 56.8985 192.137 58.6627 190.218L56.8885 188.155C55.5379 189.667 53.9357 190.649 52.0911 191.136C49.1675 191.909 46.5496 190.739 45.3519 188.04L57.8815 184.728C57.4055 181.8 56.2414 179.65 54.4148 178.234C52.5882 176.818 50.3651 176.437 47.7896 177.118ZM44.7335 185.56C44.5931 182.916 46.0145 180.827 48.5204 180.165C51.0612 179.493 53.199 180.678 53.8614 183.184L44.7335 185.56ZM69.6598 184.146C69.9818 185.364 69.2445 186.378 67.7479 186.774C66.2513 187.17 64.2247 187.11 61.7284 186.541L61.1326 189.64C63.7446 190.364 66.1817 190.428 68.4788 189.82C72.2028 188.836 74.1055 186.173 73.3235 183.215C72.6242 180.57 70.7872 179.678 67.1168 179.456L65.693 179.423C63.9192 179.334 63.1455 178.942 62.8971 178.003C62.6119 176.924 63.3768 176.014 64.8038 175.637C66.3004 175.241 67.8909 175.342 69.5315 175.914L70.1037 173.007C68.0342 172.362 65.938 172.321 63.7453 172.9C60.2996 173.811 58.4738 176.342 59.219 179.161C59.8538 181.563 61.612 182.438 65.0809 182.601L66.4698 182.644C68.4709 182.748 69.4022 183.172 69.6598 184.146ZM86.5862 177.177C87.2394 179.648 86.2593 181.434 83.8926 182.059C81.5259 182.685 79.7913 181.617 79.138 179.146L76.6447 169.714L73.0638 170.958L75.7044 180.947C76.7348 184.845 79.9308 186.793 83.7245 185.79C85.8823 185.22 87.3157 184.022 88.0595 182.187L88.8511 183.914L92.0531 183.067L87.8209 167.057L84.1664 168.023L86.5862 177.177ZM100.055 180.952L93.9179 157.738L90.4086 159.112L96.435 181.909L100.055 180.952ZM113.539 170.052C114.192 172.523 113.212 174.309 110.846 174.934C108.479 175.56 106.744 174.492 106.091 172.021L103.598 162.589L100.017 163.833L102.657 173.822C103.688 177.72 106.884 179.668 110.678 178.665C112.835 178.095 114.269 176.897 115.013 175.062L115.804 176.789L119.006 175.942L114.774 159.932L111.12 160.898L113.539 170.052ZM131.964 169.054C131.353 169.7 130.677 170.102 129.877 170.313C128.38 170.709 127.41 169.997 126.941 168.222L124.908 160.53L129.328 159.362L128.692 156.253L124.098 157.467L122.838 152.699L119.755 153.998L120.478 158.424L118.02 159.409L118.747 162.159L121.288 161.487L123.349 169.283C124.278 172.799 126.823 174.397 130.06 173.542C131.522 173.155 132.778 172.413 133.854 171.273L131.964 169.054ZM133.604 151.305C134.961 150.947 135.645 149.872 135.323 148.654C134.983 147.366 133.848 146.735 132.49 147.094C131.098 147.462 130.389 148.581 130.729 149.868C131.051 151.087 132.212 151.673 133.604 151.305ZM140.513 170.257L136.28 154.247L132.661 155.204L136.893 171.214L140.513 170.257ZM158.225 163.602C159.342 161.63 159.565 159.375 158.893 156.834C158.221 154.293 156.913 152.442 154.968 151.281C153.022 150.119 150.801 149.887 148.295 150.55C145.789 151.212 143.982 152.546 142.83 154.527C141.713 156.498 141.481 158.719 142.152 161.259C142.824 163.8 144.132 165.651 146.078 166.812C148.058 167.965 150.279 168.197 152.785 167.534C155.291 166.872 157.107 165.573 158.225 163.602ZM155.352 157.807C156.162 160.87 154.677 163.422 151.858 164.167C150.431 164.545 149.163 164.396 148.009 163.695C146.856 162.995 146.072 161.861 145.711 160.356C144.874 157.188 146.359 154.636 149.144 153.9C151.963 153.155 154.515 154.64 155.352 157.807ZM168.373 145.242C166.25 145.803 164.772 146.976 164.02 148.776L163.117 146.631L160.017 147.861L164.276 163.975L167.896 163.018L165.476 153.865C164.823 151.394 165.838 149.599 168.205 148.973C170.572 148.347 172.288 149.346 172.923 151.747L175.379 161.04L179.034 160.074L176.347 149.911C175.353 146.152 172.132 144.249 168.373 145.242ZM199.51 155.145C201.703 154.566 203.626 153.387 205.287 151.645L203.15 149.193C201.927 150.485 200.585 151.324 199.089 151.719C195.991 152.538 193.395 151.027 192.576 147.93C191.757 144.832 193.259 142.201 196.356 141.382C197.853 140.987 199.434 141.053 201.135 141.571L201.782 138.384C199.476 137.69 197.222 137.616 195.03 138.196C192.489 138.867 190.673 140.166 189.555 142.138C188.429 144.074 188.206 146.33 188.887 148.905C189.558 151.446 190.867 153.297 192.812 154.458C194.748 155.585 196.97 155.817 199.51 155.145ZM221.546 146.863C222.663 144.892 222.886 142.636 222.214 140.095C221.542 137.554 220.234 135.703 218.289 134.542C216.343 133.381 214.122 133.148 211.616 133.811C209.11 134.473 207.303 135.807 206.151 137.788C205.034 139.759 204.802 141.98 205.473 144.521C206.145 147.061 207.453 148.912 209.399 150.074C211.379 151.226 213.6 151.458 216.106 150.795C218.612 150.133 220.428 148.834 221.546 146.863ZM218.673 141.068C219.483 144.131 217.998 146.683 215.179 147.429C213.752 147.806 212.484 147.657 211.33 146.957C210.177 146.256 209.393 145.123 209.032 143.617C208.195 140.45 209.68 137.897 212.465 137.161C215.284 136.416 217.836 137.901 218.673 141.068ZM240.987 126.047C238.829 126.617 237.423 127.92 236.813 129.98C235.372 128.611 233.295 128.08 231.346 128.595C229.362 129.12 228.024 130.256 227.253 131.986L226.438 129.893L223.338 131.122L227.598 147.236L231.217 146.28L228.751 136.952C228.117 134.55 228.95 132.915 231.004 132.372C233.092 131.82 234.669 132.856 235.295 135.222L237.76 144.55L241.241 143.63L238.775 134.302C238.14 131.901 238.939 130.275 240.993 129.732C243.081 129.18 244.64 130.145 245.238 132.408L247.749 141.909L251.369 140.952L248.682 130.79C247.689 127.031 244.606 125.09 240.987 126.047ZM258.554 121.403C256.048 122.065 254.232 123.365 253.114 125.336C251.997 127.307 251.765 129.528 252.436 132.069C253.117 134.644 254.461 136.486 256.476 137.629C258.525 138.763 260.781 138.986 263.287 138.323C265.619 137.707 267.663 136.422 269.427 134.503L267.653 132.44C266.302 133.952 264.7 134.934 262.855 135.421C259.932 136.194 257.314 135.024 256.116 132.325L268.646 129.013C268.17 126.085 267.006 123.935 265.179 122.519C263.352 121.103 261.129 120.722 258.554 121.403ZM255.498 129.844C255.357 127.2 256.779 125.112 259.285 124.449C261.825 123.778 263.963 124.963 264.626 127.469L255.498 129.844ZM291.1 126.987C290.488 127.632 289.813 128.034 289.012 128.246C287.516 128.642 286.545 127.93 286.076 126.155L284.043 118.463L288.463 117.295L287.828 114.186L283.233 115.4L281.973 110.632L278.89 111.931L279.614 116.357L277.156 117.342L277.883 120.092L280.423 119.42L282.484 127.216C283.413 130.731 285.959 132.33 289.195 131.474C290.657 131.088 291.913 130.346 292.989 129.205L291.1 126.987ZM299.603 110.552C297.375 111.141 295.969 112.443 295.376 114.425L294.382 111.932L291.29 113.196L295.541 129.276L299.161 128.319L297.045 120.314C296.244 117.286 297.489 115.095 300.413 114.322C300.796 114.221 301.302 114.162 301.921 114.11L301.284 110.293C300.804 110.309 300.264 110.377 299.603 110.552ZM317.37 116.17C318.023 118.641 317.043 120.427 314.676 121.052C312.309 121.678 310.575 120.61 309.922 118.139L307.428 108.707L303.847 109.951L306.488 119.94C307.518 123.838 310.714 125.786 314.508 124.783C316.666 124.213 318.099 123.015 318.843 121.18L319.635 122.907L322.837 122.06L318.604 106.05L314.95 107.016L317.37 116.17ZM330.032 102.508C327.526 103.17 325.71 104.47 324.593 106.441C323.475 108.412 323.243 110.633 323.915 113.173C324.596 115.749 325.939 117.591 327.954 118.734C330.004 119.868 332.26 120.09 334.766 119.428C337.097 118.812 339.141 117.527 340.905 115.608L339.131 113.545C337.78 115.056 336.178 116.038 334.334 116.526C331.41 117.299 328.792 116.129 327.594 113.43L340.124 110.117C339.648 107.19 338.484 105.04 336.657 103.624C334.831 102.208 332.608 101.827 330.032 102.508ZM326.976 110.949C326.836 108.305 328.257 106.217 330.763 105.554C333.304 104.883 335.441 106.068 336.104 108.574L326.976 110.949ZM347.178 116.147C348.674 115.751 349.417 114.475 349.021 112.979C348.616 111.447 347.331 110.67 345.834 111.065C344.268 111.48 343.5 112.8 343.905 114.331C344.301 115.828 345.611 116.561 347.178 116.147Z" fill="#E2A19A"/>
<path d="M930.195 35.7257L929.168 39.4755L935.695 41.2637L930.378 60.6726L934.301 61.7474L939.619 42.3386L945.695 44.0032L947.139 40.3675L930.195 35.7257ZM952.788 49.1191C950.288 48.4342 948.065 48.6464 946.109 49.7903C944.153 50.9342 942.838 52.7387 942.143 55.2733C941.439 57.8427 941.677 60.11 942.846 62.1099C944.05 64.1194 945.889 65.4445 948.389 66.1294C950.715 66.7667 953.127 66.681 955.616 65.9071L955.117 63.2322C953.191 63.8615 951.312 63.9067 949.472 63.4026C946.555 62.6036 944.878 60.2778 945.197 57.3418L957.697 60.7661C958.754 57.9951 958.827 55.5514 957.958 53.4096C957.089 51.2679 955.357 49.823 952.788 49.1191ZM945.907 54.8861C947.113 52.5289 949.391 51.4359 951.891 52.1208C954.425 52.8152 955.68 54.9131 954.995 57.413L945.907 54.8861ZM962.771 69.5469L969.116 46.3882L965.39 45.8156L959.16 68.5577L962.771 69.5469ZM970.705 71.7205L977.05 48.5619L973.325 47.9893L967.094 70.7313L970.705 71.7205ZM991.078 72.4494L989.432 59.3821L985.363 58.566L988.147 76.2002L982.98 82.6607L986.695 83.6784L1002.69 63.3125L998.661 62.2091L991.078 72.4494ZM1013.92 81.5827C1015.88 80.4388 1017.21 78.5995 1017.9 76.0649C1018.59 73.5303 1018.39 71.2725 1017.29 69.2916C1016.19 67.3106 1014.39 65.9951 1011.89 65.3102C1009.39 64.6253 1007.16 64.8722 1005.17 66.0066C1003.21 67.1505 1001.89 68.955 1001.2 71.4896C1000.51 74.0242 1000.71 76.282 1001.81 78.263C1002.94 80.2534 1004.75 81.569 1007.25 82.2539C1009.75 82.9387 1011.97 82.7266 1013.92 81.5827ZM1014.35 75.1294C1013.51 78.1848 1010.95 79.6469 1008.13 78.8764C1006.71 78.4864 1005.69 77.7212 1005.04 76.5364C1004.4 75.3516 1004.29 73.978 1004.73 72.4946C1005.6 69.335 1008.16 67.8729 1010.94 68.6339C1013.75 69.4043 1015.21 71.9698 1014.35 75.1294ZM1031.68 81.072C1031.01 83.5372 1029.26 84.5898 1026.9 83.943C1024.54 83.2961 1023.58 81.5016 1024.25 79.0365L1026.83 69.6272L1023.11 68.9062L1020.38 78.871C1019.31 82.7597 1021.1 86.0486 1024.88 87.0854C1027.04 87.6752 1028.88 87.3584 1030.44 86.1446L1030.26 88.0357L1033.45 88.9108L1037.83 72.9393L1034.18 71.9405L1031.68 81.072ZM1050.74 75.9526C1048.51 75.3439 1046.64 75.7648 1045.14 77.1808L1045.53 74.5258L1042.22 74.0674L1037.82 90.1083L1041.43 91.0976L1043.62 83.1118C1044.45 80.0911 1046.63 78.8212 1049.54 79.6202C1049.93 79.7248 1050.39 79.9274 1050.95 80.1933L1052.32 76.5733C1051.9 76.3455 1051.39 76.1334 1050.74 75.9526ZM1059.55 91.2092C1059.22 92.4244 1058.08 92.9314 1056.58 92.5224C1055.09 92.1134 1053.37 91.0442 1051.49 89.2992L1049.42 91.6806C1051.32 93.6183 1053.39 94.8963 1055.69 95.5241C1059.4 96.5419 1062.38 95.1939 1063.19 92.2427C1063.91 89.6039 1062.77 87.9102 1059.71 85.8765L1058.49 85.1331C1057.01 84.1652 1056.53 83.4385 1056.79 82.501C1057.08 81.4247 1058.2 81.0218 1059.63 81.4118C1061.12 81.8208 1062.44 82.7064 1063.58 84.0244L1065.53 81.7975C1064.06 80.2013 1062.27 79.1131 1060.08 78.5138C1056.65 77.5721 1053.8 78.8445 1053.03 81.6568C1052.37 84.0526 1053.45 85.6925 1056.37 87.5745L1057.55 88.3084C1059.23 89.4028 1059.82 90.237 1059.55 91.2092ZM1076.75 83.08C1074.25 82.3951 1072.03 82.6073 1070.07 83.7512C1068.12 84.8951 1066.8 86.6996 1066.11 89.2342C1065.4 91.8035 1065.64 94.0708 1066.81 96.0708C1068.01 98.0803 1069.85 99.4053 1072.35 100.09C1074.68 100.728 1077.09 100.642 1079.58 99.868L1079.08 97.1931C1077.15 97.8224 1075.28 97.8676 1073.44 97.3635C1070.52 96.5644 1068.84 94.2387 1069.16 91.3026L1081.66 94.727C1082.72 91.956 1082.79 89.5122 1081.92 87.3705C1081.05 85.2288 1079.32 83.7839 1076.75 83.08ZM1069.87 88.847C1071.08 86.4898 1073.35 85.3968 1075.85 86.0816C1078.39 86.776 1079.64 88.874 1078.96 91.3739L1069.87 88.847ZM1086.73 103.508L1093.08 80.3491L1089.35 79.7765L1083.12 102.519L1086.73 103.508ZM1104.15 86.1826C1104.92 86.3919 1105.66 86.819 1106.34 87.4544L1108.32 85.1581C1107.16 84.058 1105.88 83.2956 1104.45 82.9056C1101.16 82.0019 1098.28 83.3784 1097.34 86.8158L1096.72 89.0726L1094.6 88.4924L1093.76 91.5478L1095.88 92.128L1092.34 105.044L1095.95 106.033L1099.49 93.1173L1103 94.078L1104.11 91.0987L1100.33 90.0619L1100.89 88.0133C1101.35 86.3468 1102.66 85.7736 1104.15 86.1826ZM1114.34 111.592C1115.83 112.001 1117.11 111.27 1117.52 109.777C1117.94 108.249 1117.22 106.932 1115.72 106.523C1114.16 106.095 1112.83 106.851 1112.42 108.379C1112.01 109.871 1112.77 111.164 1114.34 111.592ZM1122.78 113.905C1124.27 114.314 1125.55 113.583 1125.96 112.09C1126.38 110.562 1125.66 109.245 1124.17 108.836C1122.6 108.408 1121.28 109.164 1120.86 110.691C1120.45 112.184 1121.22 113.477 1122.78 113.905ZM1131.22 116.218C1132.71 116.627 1134 115.896 1134.41 114.403C1134.82 112.875 1134.1 111.558 1132.61 111.149C1131.05 110.721 1129.72 111.477 1129.3 113.004C1128.89 114.497 1129.66 115.79 1131.22 116.218ZM1153.76 117.018L1152.12 103.951L1148.05 103.135L1150.83 120.769L1145.67 127.23L1149.38 128.247L1165.37 107.882L1161.35 106.778L1153.76 117.018ZM1174.54 109.87C1172.04 109.185 1169.82 109.397 1167.86 110.541C1165.9 111.685 1164.59 113.489 1163.89 116.024C1163.19 118.593 1163.43 120.861 1164.6 122.86C1165.8 124.87 1167.64 126.195 1170.14 126.88C1172.47 127.517 1174.88 127.432 1177.37 126.658L1176.87 123.983C1174.94 124.612 1173.06 124.657 1171.22 124.153C1168.31 123.354 1166.63 121.028 1166.95 118.092L1179.45 121.517C1180.51 118.746 1180.58 116.302 1179.71 114.16C1178.84 112.018 1177.11 110.574 1174.54 109.87ZM1167.66 115.637C1168.86 113.279 1171.14 112.186 1173.64 112.871C1176.18 113.566 1177.43 115.664 1176.75 118.164L1167.66 115.637ZM1197.27 117.701C1196.36 116.371 1195 115.476 1193.16 114.972C1190.56 114.258 1188.22 114.477 1186.2 115.602C1184.17 116.727 1182.8 118.591 1182.1 121.16C1181.4 123.695 1181.51 125.889 1182.45 127.788C1183.38 129.687 1184.98 130.945 1187.17 131.545C1189.49 132.182 1191.95 131.809 1193.59 130.579L1193.34 132.714L1196.54 133.589L1200.91 117.617L1197.72 116.742L1197.27 117.701ZM1189.01 128.617C1186.27 127.865 1184.98 125.347 1185.83 122.257C1186.71 119.028 1189.43 117.421 1192.52 118.267C1194.22 118.734 1195.43 119.512 1196.22 120.586L1194.91 125.343C1194.16 128.086 1191.83 129.387 1189.01 128.617ZM1213.69 120.596C1211.47 119.987 1209.6 120.408 1208.09 121.824L1208.48 119.169L1205.17 118.711L1200.78 134.752L1204.39 135.741L1206.58 127.755C1207.41 124.734 1209.58 123.464 1212.5 124.263C1212.88 124.368 1213.35 124.571 1213.91 124.837L1215.28 121.217C1214.85 120.989 1214.35 120.777 1213.69 120.596ZM1222.51 135.852C1222.18 137.068 1221.03 137.575 1219.54 137.166C1218.05 136.757 1216.32 135.688 1214.45 133.942L1212.38 136.324C1214.27 138.262 1216.35 139.54 1218.64 140.167C1222.36 141.185 1225.34 139.837 1226.15 136.886C1226.87 134.247 1225.73 132.554 1222.67 130.52L1221.45 129.776C1219.96 128.809 1219.49 128.082 1219.75 127.144C1220.04 126.068 1221.16 125.665 1222.58 126.055C1224.08 126.464 1225.4 127.35 1226.53 128.668L1228.49 126.441C1227.02 124.845 1225.23 123.756 1223.04 123.157C1219.6 122.215 1216.75 123.488 1215.98 126.3C1215.33 128.696 1216.41 130.336 1219.33 132.218L1220.51 132.952C1222.18 134.046 1222.78 134.88 1222.51 135.852ZM918.343 100.923L924.688 77.7645L920.963 77.1919L914.732 99.9339L918.343 100.923ZM939.023 90.5007C938.118 89.1704 936.758 88.2753 934.918 87.7711C932.314 87.0577 929.977 87.2761 927.952 88.401C925.927 89.5258 924.557 91.3903 923.854 93.9596C923.159 96.4942 923.267 98.6887 924.203 100.587C925.138 102.486 926.735 103.745 928.922 104.344C931.248 104.981 933.702 104.608 935.345 103.379L935.096 105.513L938.291 106.388L942.666 90.4165L939.472 89.5413L939.023 90.5007ZM930.769 101.416C928.026 100.664 926.738 98.1465 927.584 95.0564C928.469 91.8273 931.186 90.2202 934.276 91.0667C935.978 91.5328 937.183 92.3109 937.971 93.3854L936.668 98.1421C935.916 100.885 933.582 102.186 930.769 101.416ZM952.83 106.9C951.977 107.151 951.191 107.16 950.392 106.941C948.899 106.532 948.417 105.43 948.903 103.659L951.005 95.9856L955.414 97.1936L956.425 94.1857L951.842 92.9301L953.145 88.1734L949.827 87.7497L948.231 91.9409L945.611 91.559L944.859 94.3019L947.394 94.9963L945.263 102.774C944.302 106.281 945.701 108.941 948.93 109.825C950.388 110.225 951.847 110.214 953.351 109.767L952.83 106.9ZM967.222 96.6212C964.722 95.9363 962.499 96.1485 960.543 97.2924C958.588 98.4363 957.272 100.241 956.578 102.775C955.874 105.345 956.111 107.612 957.28 109.612C958.484 111.621 960.323 112.947 962.823 113.631C965.15 114.269 967.562 114.183 970.051 113.409L969.552 110.734C967.625 111.364 965.746 111.409 963.906 110.905C960.99 110.106 959.313 107.78 959.632 104.844L972.131 108.268C973.189 105.497 973.261 103.053 972.392 100.912C971.523 98.77 969.791 97.3251 967.222 96.6212ZM960.342 102.388C961.548 100.031 963.825 98.938 966.325 99.6228C968.86 100.317 970.114 102.415 969.429 104.915L960.342 102.388ZM986.506 101.904C984.284 101.295 982.414 101.716 980.906 103.132L981.298 100.477L977.989 100.019L973.595 116.06L977.206 117.049L979.393 109.063C980.221 106.043 982.398 104.773 985.314 105.572C985.696 105.676 986.163 105.879 986.725 106.145L988.09 102.525C987.667 102.297 987.165 102.085 986.506 101.904Z" fill="#2F373A"/>
<path d="M897.823 396.944L889.399 380.78L886.028 381.357L883.541 399.495L876.021 383.067L871.728 383.802L882.552 406.311L886.384 405.656L888.968 388.085L897.278 403.794L901.075 403.145L903.7 378.336L899.406 379.07L897.823 396.944ZM915.252 383.409C913.158 383.767 911.647 384.756 910.683 386.382L909.149 377.404L905.531 378.461L909.505 401.704L913.195 401.073L911.599 391.74C911.169 389.221 912.304 387.529 914.752 387.11C917.201 386.692 918.869 387.904 919.3 390.424L920.895 399.756L924.586 399.125L922.845 388.941C922.159 384.931 919.12 382.748 915.252 383.409ZM933.488 380.292C930.934 380.728 929.009 381.861 927.721 383.725C926.432 385.588 926.003 387.78 926.446 390.37C926.895 392.996 928.069 394.95 929.975 396.268C931.915 397.58 934.142 398.003 936.697 397.566C939.075 397.159 941.225 396.061 943.153 394.308L941.569 392.095C940.089 393.48 938.406 394.315 936.525 394.637C933.545 395.147 931.041 393.748 930.088 390.953L942.863 388.769C942.65 385.811 941.681 383.566 939.988 381.993C938.295 380.42 936.114 379.843 933.488 380.292ZM929.693 388.428C929.789 385.782 931.39 383.828 933.945 383.391C936.536 382.948 938.56 384.319 938.996 386.874L929.693 388.428ZM953.093 376.94C950.929 377.31 949.353 378.346 948.443 380.072L947.735 377.856L944.537 378.804L947.346 395.234L951.037 394.603L949.441 385.271C949.01 382.751 950.181 381.054 952.594 380.641C955.007 380.229 956.628 381.376 957.046 383.824L958.666 393.299L962.392 392.662L960.62 382.3C959.965 378.468 956.926 376.285 953.093 376.94ZM981.068 384.721L974.049 373.576L970.017 374.558L979.998 389.36L978.049 397.399L981.846 396.75L987.724 371.531L983.608 372.234L981.068 384.721ZM1005.63 383.334C1006.92 381.47 1007.34 379.243 1006.9 376.652C1006.46 374.062 1005.32 372.102 1003.49 370.772C1001.65 369.442 999.46 369.013 996.905 369.45C994.35 369.887 992.432 371.055 991.108 372.924C989.819 374.788 989.391 376.98 989.833 379.57C990.276 382.161 991.415 384.121 993.249 385.451C995.119 386.775 997.311 387.203 999.866 386.767C1002.42 386.33 1004.35 385.197 1005.63 383.334ZM1003.29 377.307C1003.82 380.429 1002.12 382.839 999.242 383.331C997.787 383.579 996.537 383.318 995.451 382.518C994.364 381.718 993.684 380.519 993.459 378.987C992.907 375.758 994.613 373.348 997.452 372.863C1000.33 372.371 1002.74 374.077 1003.29 377.307ZM1021.51 375.361C1021.94 377.88 1020.8 379.572 1018.39 379.984C1015.98 380.397 1014.34 379.178 1013.91 376.659L1012.27 367.042L1008.59 367.963L1010.33 378.147C1011.01 382.122 1014.02 384.346 1017.89 383.685C1020.09 383.309 1021.62 382.243 1022.53 380.482L1023.16 382.272L1026.43 381.714L1023.64 365.391L1019.91 366.028L1021.51 375.361ZM1049.68 361.998C1048.3 361.175 1046.69 360.939 1044.8 361.261C1042.14 361.716 1040.12 362.902 1038.76 364.778C1037.4 366.654 1036.95 368.923 1037.4 371.548C1037.84 374.139 1038.87 376.082 1040.52 377.407C1042.17 378.731 1044.15 379.196 1046.38 378.814C1048.76 378.408 1050.82 377.032 1051.79 375.223L1052.47 377.262L1055.74 376.704L1052.94 360.381L1049.68 360.939L1049.68 361.998ZM1046.82 375.38C1044.01 375.859 1041.78 374.122 1041.24 370.964C1040.68 367.664 1042.46 365.059 1045.62 364.519C1047.36 364.221 1048.78 364.417 1049.95 365.057L1050.78 369.918C1051.26 372.722 1049.69 374.888 1046.82 375.38ZM1065.79 357.674C1063.51 358.062 1062 359.234 1061.23 361.155L1060.46 358.584L1057.27 359.568L1060.07 375.962L1063.76 375.331L1062.37 367.17C1061.84 364.082 1063.28 362.011 1066.26 361.501C1066.65 361.434 1067.16 361.421 1067.78 361.424L1067.48 357.566C1067 357.539 1066.46 357.559 1065.79 357.674ZM1077.65 355.646C1075.09 356.083 1073.17 357.216 1071.88 359.079C1070.59 360.943 1070.16 363.135 1070.6 365.725C1071.05 368.351 1072.23 370.305 1074.13 371.623C1076.07 372.935 1078.3 373.357 1080.86 372.92C1083.23 372.514 1085.38 371.416 1087.31 369.662L1085.73 367.449C1084.25 368.834 1082.56 369.67 1080.68 369.992C1077.7 370.501 1075.2 369.103 1074.25 366.308L1087.02 364.124C1086.81 361.165 1085.84 358.92 1084.15 357.347C1082.45 355.774 1080.27 355.197 1077.65 355.646ZM1073.85 363.782C1073.95 361.136 1075.55 359.182 1078.1 358.746C1080.69 358.303 1082.72 359.673 1083.15 362.228L1073.85 363.782ZM1097.25 352.294C1095.09 352.665 1093.51 353.701 1092.6 355.427L1091.89 353.211L1088.7 354.159L1091.5 370.589L1095.2 369.958L1093.6 360.625C1093.17 358.106 1094.34 356.408 1096.75 355.996C1099.17 355.583 1100.79 356.73 1101.2 359.179L1102.82 368.653L1106.55 368.016L1104.78 357.655C1104.12 353.822 1101.08 351.639 1097.25 352.294ZM1105.22 343.883L1106.58 351.832L1108.64 351.48L1108.91 343.252L1105.22 343.883ZM1124.99 361.468C1124.32 362.056 1123.61 362.397 1122.8 362.536C1121.27 362.797 1120.37 362.002 1120.06 360.192L1118.72 352.35L1123.22 351.58L1122.87 348.427L1118.18 349.227L1117.35 344.366L1114.17 345.385L1114.49 349.858L1111.96 350.62L1112.44 353.424L1115.03 352.981L1116.39 360.93C1117 364.514 1119.39 366.332 1122.69 365.768C1124.18 365.513 1125.5 364.886 1126.67 363.846L1124.99 361.468ZM1137.07 342.419C1138.46 342.182 1139.23 341.173 1139.02 339.931C1138.8 338.618 1137.72 337.889 1136.34 338.125C1134.92 338.368 1134.11 339.419 1134.34 340.732C1134.55 341.974 1135.65 342.662 1137.07 342.419ZM1142.27 361.91L1139.48 345.587L1135.79 346.218L1138.58 362.541L1142.27 361.91ZM1152.97 342.768C1150.81 343.138 1149.23 344.175 1148.32 345.901L1147.62 343.684L1144.42 344.633L1147.23 361.062L1150.92 360.431L1149.32 351.099C1148.89 348.579 1150.06 346.882 1152.48 346.469C1154.89 346.057 1156.51 347.204 1156.93 349.652L1158.55 359.127L1162.27 358.49L1160.5 348.128C1159.85 344.296 1156.81 342.113 1152.97 342.768ZM1185.38 338.798C1184 337.975 1182.39 337.74 1180.51 338.061C1177.85 338.516 1175.82 339.702 1174.46 341.578C1173.1 343.454 1172.65 345.723 1173.1 348.349C1173.54 350.939 1174.57 352.882 1176.22 354.207C1177.87 355.531 1179.85 355.997 1182.08 355.614C1184.46 355.208 1186.53 353.832 1187.5 352.023L1188.17 354.062L1191.44 353.504L1188.65 337.181L1185.38 337.739L1185.38 338.798ZM1182.52 352.18C1179.72 352.659 1177.48 350.923 1176.94 347.764C1176.38 344.464 1178.16 341.859 1181.32 341.319C1183.06 341.021 1184.48 341.217 1185.65 341.857L1186.48 346.718C1186.96 349.522 1185.39 351.689 1182.52 352.18ZM1214.56 333.81C1213.18 332.987 1211.57 332.751 1209.69 333.073C1207.02 333.528 1205 334.714 1203.64 336.59C1202.28 338.466 1201.83 340.734 1202.28 343.36C1202.7 345.809 1203.71 347.681 1205.35 348.97C1207 350.259 1208.94 350.695 1211.17 350.313C1213.59 349.9 1215.59 348.608 1216.5 346.882L1216.73 348.194C1217.29 351.495 1215.62 353.899 1212.36 354.457C1210.62 354.754 1208.6 354.514 1206.35 353.695L1205.49 356.799C1208.14 357.771 1210.7 358.026 1213.22 357.596C1215.88 357.141 1217.84 355.967 1219.12 354.067C1220.44 352.162 1220.85 349.864 1220.38 347.132L1217.83 332.192L1214.56 332.751L1214.56 333.81ZM1211.69 347.156C1208.89 347.635 1206.65 345.863 1206.12 342.741C1205.54 339.369 1207.33 336.799 1210.49 336.259C1212.23 335.962 1213.65 336.157 1214.82 336.833L1215.65 341.659C1216.13 344.498 1214.57 346.665 1211.69 347.156ZM1238.37 343.545C1239.65 341.682 1240.08 339.455 1239.63 336.864C1239.19 334.274 1238.05 332.314 1236.22 330.984C1234.38 329.654 1232.19 329.225 1229.64 329.662C1227.08 330.098 1225.16 331.266 1223.84 333.136C1222.55 335 1222.12 337.192 1222.57 339.782C1223.01 342.373 1224.15 344.333 1225.98 345.663C1227.85 346.986 1230.04 347.415 1232.6 346.978C1235.15 346.542 1237.08 345.409 1238.37 343.545ZM1236.02 337.518C1236.56 340.641 1234.85 343.051 1231.97 343.542C1230.52 343.791 1229.27 343.53 1228.18 342.73C1227.1 341.929 1226.42 340.731 1226.19 339.199C1225.64 335.97 1227.35 333.56 1230.18 333.074C1233.06 332.583 1235.47 334.289 1236.02 337.518ZM1257.91 340.204C1259.2 338.34 1259.62 336.113 1259.18 333.523C1258.74 330.932 1257.6 328.972 1255.76 327.642C1253.93 326.312 1251.74 325.884 1249.18 326.32C1246.63 326.757 1244.71 327.925 1243.39 329.795C1242.1 331.659 1241.67 333.85 1242.11 336.441C1242.55 339.031 1243.69 340.991 1245.53 342.321C1247.4 343.645 1249.59 344.074 1252.14 343.637C1254.7 343.2 1256.62 342.068 1257.91 340.204ZM1255.57 334.177C1256.1 337.3 1254.39 339.71 1251.52 340.201C1250.06 340.45 1248.81 340.189 1247.73 339.388C1246.64 338.588 1245.96 337.389 1245.74 335.857C1245.18 332.628 1246.89 330.218 1249.73 329.733C1252.6 329.242 1255.01 330.948 1255.57 334.177ZM1273.75 323.508C1272.28 322.846 1270.68 322.645 1268.9 322.949C1266.28 323.398 1264.29 324.578 1262.97 326.483C1261.65 328.353 1261.23 330.615 1261.69 333.277C1262.12 335.796 1263.18 337.733 1264.83 339.058C1266.48 340.383 1268.46 340.848 1270.69 340.466C1273.21 340.035 1275.03 338.921 1276.18 337.117L1276.78 338.913L1280.08 338.349L1276.04 314.68L1272.38 315.743L1273.75 323.508ZM1271.14 337.102C1268.34 337.581 1266.05 335.744 1265.5 332.515C1264.94 329.215 1266.69 326.651 1269.92 326.099C1271.44 325.838 1272.88 326.104 1274.29 326.886L1275.17 332.031C1275.61 334.586 1274.02 336.611 1271.14 337.102ZM900.096 428.61C897.896 428.986 896.38 430.158 895.589 432.156C894.275 430.664 892.254 429.95 890.267 430.29C888.244 430.636 886.81 431.648 885.888 433.303L885.263 431.146L882.065 432.094L884.874 448.524L888.565 447.893L886.939 438.383C886.52 435.934 887.496 434.38 889.59 434.022C891.719 433.658 893.198 434.829 893.61 437.242L895.236 446.752L898.784 446.146L897.159 436.636C896.74 434.187 897.68 432.638 899.774 432.281C901.903 431.917 903.37 433.017 903.764 435.324L905.42 445.011L909.111 444.38L907.339 434.019C906.684 430.186 903.787 427.979 900.096 428.61ZM926.771 439.425C928.059 437.562 928.482 435.335 928.039 432.744C927.596 430.154 926.457 428.194 924.623 426.864C922.789 425.534 920.597 425.105 918.042 425.542C915.487 425.978 913.569 427.147 912.245 429.016C910.956 430.88 910.528 433.072 910.971 435.662C911.413 438.253 912.552 440.213 914.386 441.543C916.256 442.866 918.448 443.295 921.003 442.858C923.558 442.422 925.482 441.289 926.771 439.425ZM924.425 433.398C924.959 436.521 923.253 438.931 920.379 439.422C918.924 439.671 917.674 439.41 916.588 438.61C915.501 437.809 914.821 436.611 914.596 435.079C914.044 431.85 915.75 429.44 918.589 428.954C921.463 428.463 923.873 430.169 924.425 433.398ZM946.315 436.084C947.604 434.22 948.026 431.993 947.583 429.403C947.141 426.812 946.002 424.852 944.168 423.522C942.333 422.192 940.142 421.764 937.587 422.2C935.032 422.637 933.113 423.805 931.789 425.675C930.501 427.539 930.072 429.73 930.515 432.321C930.958 434.911 932.097 436.871 933.931 438.201C935.801 439.525 937.992 439.954 940.547 439.517C943.102 439.08 945.027 437.948 946.315 436.084ZM943.97 430.057C944.504 433.18 942.798 435.59 939.923 436.081C938.468 436.33 937.219 436.069 936.132 435.268C935.046 434.468 934.366 433.269 934.141 431.737C933.589 428.508 935.295 426.098 938.134 425.613C941.008 425.122 943.418 426.828 943.97 430.057ZM962.152 419.388C960.688 418.726 959.083 418.525 957.309 418.829C954.683 419.278 952.693 420.458 951.375 422.363C950.052 424.233 949.635 426.495 950.09 429.157C950.521 431.676 951.582 433.613 953.233 434.938C954.884 436.263 956.863 436.728 959.098 436.346C961.618 435.915 963.436 434.801 964.588 432.997L965.188 434.793L968.488 434.229L964.441 410.56L960.788 411.623L962.152 419.388ZM959.546 432.982C956.742 433.461 954.456 431.624 953.904 428.395C953.34 425.095 955.093 422.531 958.322 421.979C959.848 421.718 961.281 421.984 962.693 422.766L963.573 427.911C964.01 430.466 962.42 432.491 959.546 432.982ZM980.827 411.74C982.211 411.503 982.988 410.494 982.776 409.252C982.551 407.939 981.477 407.21 980.093 407.446C978.674 407.689 977.867 408.74 978.092 410.053C978.304 411.295 979.408 411.983 980.827 411.74ZM986.022 431.231L983.231 414.908L979.541 415.539L982.331 431.862L986.022 431.231ZM996.731 412.089C994.566 412.459 992.99 413.496 992.08 415.222L991.372 413.005L988.174 413.954L990.983 430.383L994.674 429.752L993.078 420.42C992.647 417.9 993.818 416.203 996.231 415.79C998.644 415.378 1000.26 416.525 1000.68 418.973L1002.3 428.448L1006.03 427.811L1004.26 417.449C1003.6 413.617 1000.56 411.434 996.731 412.089ZM1017.55 421.093C1017.76 422.335 1016.94 423.28 1015.41 423.541C1013.89 423.801 1011.87 423.561 1009.44 422.772L1008.57 425.806C1011.11 426.76 1013.53 427.04 1015.87 426.64C1019.67 425.991 1021.8 423.508 1021.28 420.492C1020.82 417.795 1019.07 416.743 1015.44 416.196L1014.02 416.036C1012.26 415.789 1011.53 415.33 1011.36 414.372C1011.17 413.272 1012.02 412.434 1013.47 412.185C1015 411.924 1016.57 412.166 1018.16 412.882L1018.98 410.038C1016.98 409.211 1014.9 408.983 1012.66 409.366C1009.15 409.966 1007.1 412.324 1007.6 415.199C1008.01 417.647 1009.69 418.676 1013.13 419.147L1014.51 419.313C1016.49 419.594 1017.38 420.1 1017.55 421.093ZM1031.54 406.138C1028.99 406.575 1027.17 407.689 1026.08 409.445L1025.4 407.187L1022.21 408.171L1026.24 431.769L1029.86 430.677L1028.56 423.083C1030.02 423.746 1031.63 423.946 1033.4 423.643C1035.99 423.2 1037.95 422.026 1039.26 420.12C1040.58 418.215 1041.03 415.946 1040.58 413.285C1040.15 410.766 1039.09 408.829 1037.44 407.54C1035.79 406.215 1033.85 405.744 1031.54 406.138ZM1032.39 420.528C1030.9 420.783 1029.43 420.522 1027.99 419.747L1027.11 414.602C1026.68 412.082 1028.3 410.016 1031.13 409.531C1033.97 409.045 1036.26 410.882 1036.81 414.112C1037.38 417.412 1035.62 419.976 1032.39 420.528ZM1044.52 400.851C1045.9 400.614 1046.68 399.605 1046.47 398.363C1046.24 397.05 1045.17 396.321 1043.79 396.557C1042.37 396.8 1041.56 397.851 1041.78 399.164C1042 400.406 1043.1 401.094 1044.52 400.851ZM1049.72 420.342L1046.92 404.019L1043.23 404.65L1046.02 420.973L1049.72 420.342ZM1060.39 401.206C1058.12 401.594 1056.6 402.767 1055.83 404.687L1055.07 402.116L1051.87 403.1L1054.68 419.494L1058.37 418.863L1056.97 410.702C1056.44 407.614 1057.88 405.543 1060.86 405.033C1061.25 404.967 1061.76 404.953 1062.38 404.956L1062.09 401.098C1061.61 401.071 1061.06 401.091 1060.39 401.206ZM1072.25 399.178C1069.69 399.615 1067.77 400.748 1066.48 402.611C1065.19 404.475 1064.76 406.667 1065.21 409.257C1065.66 411.883 1066.83 413.837 1068.74 415.155C1070.68 416.467 1072.9 416.889 1075.46 416.453C1077.84 416.046 1079.99 414.948 1081.91 413.194L1080.33 410.981C1078.85 412.367 1077.17 413.202 1075.29 413.524C1072.31 414.033 1069.8 412.635 1068.85 409.84L1081.62 407.656C1081.41 404.697 1080.44 402.453 1078.75 400.879C1077.06 399.306 1074.88 398.729 1072.25 399.178ZM1068.45 407.314C1068.55 404.668 1070.15 402.714 1072.71 402.278C1075.3 401.835 1077.32 403.205 1077.76 405.76L1068.45 407.314ZM1100.6 406.896L1093.58 395.751L1089.55 396.733L1099.53 411.534L1097.58 419.574L1101.37 418.925L1107.25 393.705L1103.14 394.409L1100.6 406.896ZM1125.16 405.508C1126.45 403.644 1126.87 401.417 1126.43 398.827C1125.99 396.237 1124.85 394.276 1123.01 392.947C1121.18 391.617 1118.99 391.188 1116.43 391.625C1113.88 392.061 1111.96 393.229 1110.64 395.099C1109.35 396.963 1108.92 399.155 1109.36 401.745C1109.8 404.335 1110.94 406.296 1112.78 407.625C1114.65 408.949 1116.84 409.378 1119.39 408.941C1121.95 408.505 1123.87 407.372 1125.16 405.508ZM1122.82 399.481C1123.35 402.604 1121.64 405.014 1118.77 405.505C1117.32 405.754 1116.07 405.493 1114.98 404.693C1113.89 403.892 1113.21 402.694 1112.99 401.162C1112.44 397.933 1114.14 395.523 1116.98 395.037C1119.85 394.546 1122.26 396.252 1122.82 399.481ZM1141.04 397.535C1141.47 400.055 1140.33 401.746 1137.92 402.159C1135.5 402.571 1133.87 401.353 1133.44 398.834L1131.8 389.217L1128.12 390.138L1129.86 400.322C1130.54 404.297 1133.55 406.521 1137.42 405.86C1139.62 405.484 1141.15 404.418 1142.06 402.656L1142.69 404.447L1145.96 403.889L1143.17 387.566L1139.44 388.203L1141.04 397.535ZM1156.14 384.837C1153.86 385.225 1152.35 386.398 1151.58 388.318L1150.81 385.747L1147.62 386.731L1150.42 403.125L1154.11 402.494L1152.72 394.333C1152.19 391.245 1153.63 389.174 1156.61 388.664C1157 388.598 1157.51 388.584 1158.13 388.587L1157.83 384.729C1157.35 384.702 1156.81 384.722 1156.14 384.837ZM1170.58 394.931C1170.79 396.173 1169.97 397.118 1168.44 397.379C1166.92 397.639 1164.9 397.399 1162.47 396.61L1161.6 399.644C1164.14 400.598 1166.56 400.878 1168.9 400.478C1172.7 399.829 1174.83 397.346 1174.31 394.33C1173.85 391.633 1172.1 390.581 1168.47 390.034L1167.05 389.874C1165.29 389.627 1164.56 389.168 1164.39 388.21C1164.2 387.11 1165.05 386.272 1166.5 386.023C1168.03 385.762 1169.6 386.004 1171.19 386.72L1172.01 383.876C1170.01 383.049 1167.93 382.821 1165.69 383.204C1162.18 383.804 1160.13 386.162 1160.62 389.037C1161.04 391.485 1162.72 392.514 1166.16 392.985L1167.54 393.151C1169.52 393.432 1170.41 393.938 1170.58 394.931ZM1182.72 380.291C1180.17 380.728 1178.25 381.861 1176.96 383.724C1175.67 385.588 1175.24 387.78 1175.68 390.37C1176.13 392.996 1177.31 394.95 1179.21 396.268C1181.15 397.58 1183.38 398.002 1185.93 397.566C1188.31 397.159 1190.46 396.061 1192.39 394.307L1190.81 392.094C1189.33 393.48 1187.64 394.315 1185.76 394.637C1182.78 395.146 1180.28 393.748 1179.32 390.953L1192.1 388.769C1191.89 385.811 1190.92 383.566 1189.22 381.992C1187.53 380.419 1185.35 379.842 1182.72 380.291ZM1178.93 388.427C1179.02 385.781 1180.63 383.828 1183.18 383.391C1185.77 382.948 1187.8 384.318 1188.23 386.873L1178.93 388.427ZM1200.41 394.579L1196.36 370.911L1192.75 371.967L1196.72 395.21L1200.41 394.579ZM1208.87 371.512C1209.65 371.379 1210.5 371.452 1211.39 371.739L1212.21 368.823C1210.69 368.315 1209.21 368.167 1207.75 368.416C1204.38 368.992 1202.36 371.457 1202.96 374.97L1203.35 377.276L1201.19 377.646L1201.72 380.769L1203.89 380.399L1206.14 393.599L1209.83 392.968L1207.58 379.768L1211.16 379.155L1210.91 375.984L1207.04 376.645L1206.68 374.552C1206.39 372.848 1207.34 371.773 1208.87 371.512ZM1217.23 392.215C1218.76 391.954 1219.61 390.749 1219.35 389.223C1219.08 387.662 1217.87 386.773 1216.35 387.034C1214.75 387.307 1213.87 388.554 1214.13 390.115C1214.39 391.641 1215.64 392.488 1217.23 392.215ZM1225.86 390.74C1227.39 390.479 1228.24 389.274 1227.98 387.748C1227.71 386.187 1226.5 385.298 1224.97 385.559C1223.38 385.832 1222.5 387.078 1222.76 388.64C1223.02 390.166 1224.26 391.013 1225.86 390.74ZM1234.49 389.265C1236.02 389.004 1236.87 387.799 1236.61 386.273C1236.34 384.711 1235.13 383.823 1233.6 384.084C1232.01 384.357 1231.12 385.603 1231.39 387.165C1231.65 388.69 1232.89 389.538 1234.49 389.265Z" fill="#E2A19A"/>
<path d="M141.726 302.407L141.812 284.18L138.561 283.117L127.902 298.002L128.912 279.964L124.771 278.61L123.848 303.57L127.543 304.778L138.024 290.441L138.048 308.212L141.71 309.408L155.602 288.687L151.462 287.334L141.726 302.407ZM163.421 298.552C161.231 297.836 159.343 298.166 157.768 299.507L158.288 296.874L155.006 296.256L149.839 312.065L153.397 313.228L155.97 305.358C156.943 302.381 159.179 301.218 162.053 302.157C162.429 302.28 162.886 302.505 163.434 302.798L164.973 299.248C164.562 299 164.071 298.764 163.421 298.552ZM170.836 297.794C172.171 298.23 173.329 297.699 173.72 296.502C174.134 295.236 173.524 294.089 172.189 293.653C170.821 293.206 169.617 293.759 169.203 295.026C168.812 296.223 169.468 297.346 170.836 297.794ZM166.341 317.458L171.485 301.718L167.927 300.554L162.782 316.295L166.341 317.458ZM181.439 318.87C180.575 319.08 179.789 319.051 179.002 318.793C177.531 318.313 177.103 317.188 177.673 315.443L180.145 307.88L184.49 309.301L185.646 306.345L181.129 304.869L182.661 300.181L179.367 299.597L177.57 303.706L174.971 303.198L174.088 305.901L176.586 306.717L174.081 314.382C172.951 317.839 174.219 320.563 177.402 321.603C178.839 322.073 180.297 322.133 181.82 321.76L181.439 318.87ZM196.312 309.301C193.848 308.496 191.618 308.6 189.609 309.648C187.6 310.696 186.198 312.434 185.382 314.932C184.555 317.465 184.682 319.741 185.753 321.795C186.858 323.861 188.63 325.273 191.094 326.078C193.387 326.828 195.801 326.859 198.324 326.207L197.955 323.511C196 324.046 194.122 324 192.308 323.407C189.434 322.468 187.871 320.064 188.332 317.146L200.651 321.173C201.842 318.456 202.032 316.019 201.268 313.837C200.504 311.656 198.844 310.129 196.312 309.301ZM189.161 314.728C190.479 312.432 192.807 311.451 195.271 312.256C197.769 313.072 198.92 315.229 198.115 317.692L189.161 314.728ZM220.603 331.67C219.739 331.88 218.953 331.851 218.166 331.593C216.695 331.112 216.267 329.988 216.838 328.243L219.309 320.68L223.655 322.101L224.81 319.145L220.293 317.669L221.825 312.981L218.532 312.397L216.735 316.506L214.136 315.998L213.252 318.701L215.75 319.517L213.245 327.182C212.116 330.638 213.384 333.363 216.566 334.403C218.004 334.873 219.461 334.933 220.984 334.56L220.603 331.67ZM236.705 322.502C234.686 321.843 232.888 322.013 231.277 323.001L234.107 314.344L230.414 313.591L223.088 336.005L226.647 337.168L229.588 328.168C230.382 325.739 232.176 324.772 234.537 325.543C236.898 326.315 237.808 328.165 237.014 330.595L234.073 339.595L237.631 340.758L240.841 330.937C242.105 327.07 240.434 323.721 236.705 322.502ZM250.335 323.776C251.669 324.212 252.828 323.681 253.219 322.484C253.633 321.218 253.023 320.071 251.688 319.635C250.319 319.188 249.116 319.741 248.702 321.008C248.311 322.205 248.966 323.328 250.335 323.776ZM245.84 343.44L250.984 327.7L247.425 326.537L242.281 342.277L245.84 343.44ZM264.24 331.502C262.153 330.82 260.275 331.001 258.665 332.104L259.073 329.813L255.802 329.161L250.624 345.004L254.183 346.167L257.124 337.167C257.918 334.738 259.745 333.782 262.072 334.543C264.399 335.303 265.297 337.074 264.526 339.435L261.54 348.571L265.133 349.746L268.398 339.754C269.606 336.058 267.936 332.71 264.24 331.502ZM286.136 340.287C285.297 338.914 283.982 337.954 282.169 337.361C279.602 336.523 277.258 336.627 275.181 337.653C273.103 338.678 271.645 340.474 270.818 343.006C270.046 345.367 270.07 347.496 270.923 349.404C271.777 351.311 273.287 352.6 275.443 353.305C277.77 354.065 280.148 353.858 281.758 352.755L281.345 354.021C280.304 357.204 277.705 358.551 274.557 357.522C272.88 356.974 271.212 355.823 269.596 354.045L267.39 356.392C269.281 358.487 271.429 359.909 273.859 360.703C276.425 361.541 278.701 361.414 280.721 360.332C282.776 359.261 284.211 357.42 285.072 354.785L289.78 340.379L286.632 339.35L286.136 340.287ZM277.375 350.755C274.672 349.871 273.518 347.26 274.502 344.248C275.564 340.998 278.345 339.558 281.391 340.553C283.067 341.101 284.234 341.937 284.957 343.083L283.437 347.736C282.542 350.474 280.147 351.661 277.375 350.755ZM298.073 355.588C297.682 356.786 296.512 357.236 295.041 356.756C293.569 356.275 291.9 355.123 290.114 353.289L287.93 355.568C289.729 357.595 291.741 358.972 293.999 359.71C297.661 360.907 300.705 359.705 301.655 356.796C302.505 354.196 301.448 352.449 298.486 350.269L297.309 349.468C295.868 348.429 295.431 347.68 295.733 346.756C296.08 345.695 297.216 345.347 298.619 345.805C300.091 346.286 301.371 347.235 302.438 348.606L304.498 346.477C303.11 344.811 301.373 343.638 299.217 342.933C295.83 341.826 292.922 342.959 292.016 345.73C291.244 348.092 292.245 349.782 295.069 351.803L296.212 352.593C297.835 353.768 298.387 354.63 298.073 355.588ZM319.174 362.484L318.164 349.353L314.139 348.34L316.065 366.089L310.591 372.291L314.253 373.488L331.214 353.921L327.245 352.623L319.174 362.484ZM341.552 372.714C343.561 371.666 344.973 369.893 345.79 367.395C346.606 364.897 346.513 362.632 345.511 360.6C344.509 358.569 342.77 357.167 340.306 356.362C337.842 355.557 335.6 355.695 333.557 356.732C331.548 357.779 330.147 359.518 329.331 362.016C328.514 364.514 328.607 366.779 329.61 368.811C330.646 370.854 332.385 372.255 334.849 373.061C337.312 373.866 339.543 373.762 341.552 372.714ZM342.288 366.289C341.304 369.3 338.671 370.636 335.899 369.73C334.496 369.272 333.512 368.458 332.925 367.243C332.337 366.028 332.295 364.651 332.81 363.191C333.827 360.077 336.461 358.741 339.198 359.636C341.97 360.542 343.306 363.175 342.288 366.289ZM359.312 373.064C358.518 375.494 356.725 376.461 354.398 375.7C352.071 374.94 351.195 373.101 351.989 370.671L355.02 361.398L351.337 360.497L348.128 370.318C346.875 374.151 348.5 377.522 352.23 378.741C354.351 379.435 356.206 379.207 357.827 378.071L357.554 379.951L360.702 380.98L365.846 365.239L362.253 364.065L359.312 373.064ZM390.458 385.062L390.412 373.268L387.674 372.373L380.638 381.966L380.886 369.851L376.929 368.861L377.089 386.336L380.306 387.387L387.254 378.295L387.492 389.735L390.708 390.787L401.122 376.768L397.221 375.493L390.458 385.062ZM407.026 374.986C408.361 375.422 409.519 374.892 409.911 373.694C410.324 372.428 409.714 371.282 408.38 370.846C407.011 370.398 405.807 370.952 405.394 372.218C405.002 373.416 405.658 374.539 407.026 374.986ZM402.531 394.651L407.676 378.91L404.117 377.747L398.972 393.488L402.531 394.651ZM416.503 394.293C416.111 395.491 414.941 395.942 413.47 395.461C411.999 394.98 410.33 393.829 408.543 391.995L406.359 394.273C408.158 396.3 410.17 397.678 412.429 398.416C416.09 399.612 419.134 398.41 420.085 395.502C420.935 392.901 419.877 391.154 416.916 388.974L415.738 388.173C414.298 387.134 413.861 386.385 414.163 385.461C414.509 384.401 415.646 384.052 417.049 384.511C418.52 384.992 419.801 385.941 420.868 387.312L422.927 385.182C421.54 383.517 419.802 382.343 417.647 381.639C414.259 380.531 411.351 381.664 410.445 384.436C409.674 386.797 410.674 388.487 413.498 390.509L414.641 391.299C416.264 392.473 416.816 393.335 416.503 394.293ZM435.1 387.343C433.081 386.683 431.284 386.853 429.673 387.841L432.502 379.184L428.809 378.432L421.484 400.845L425.043 402.008L427.984 393.009C428.778 390.579 430.571 389.612 432.932 390.384C435.293 391.155 436.204 393.006 435.41 395.435L432.468 404.435L436.027 405.598L439.237 395.777C440.501 391.91 438.83 388.562 435.1 387.343ZM443.928 402.499C442.388 401.996 441.026 402.687 440.523 404.227C440.065 405.63 440.607 406.867 442.045 407.451C441.369 408.707 440.351 409.852 439.025 410.895L440.285 412.14C442.962 410.554 444.703 408.471 445.553 405.871C446.057 404.331 445.4 402.98 443.928 402.499ZM460.632 413.639L468.091 390.815L464.398 390.063L457.073 412.476L460.632 413.639ZM478.728 417.546C480.737 416.499 482.15 414.726 482.966 412.228C483.782 409.73 483.689 407.465 482.687 405.433C481.685 403.401 479.946 401.999 477.482 401.194C475.018 400.389 472.777 400.527 470.733 401.564C468.725 402.612 467.323 404.35 466.507 406.848C465.69 409.346 465.783 411.611 466.786 413.643C467.822 415.686 469.561 417.088 472.025 417.893C474.488 418.698 476.719 418.594 478.728 417.546ZM479.464 411.121C478.48 414.132 475.847 415.468 473.075 414.563C471.672 414.104 470.688 413.29 470.101 412.076C469.513 410.861 469.471 409.484 469.986 408.023C471.004 404.909 473.637 403.573 476.374 404.468C479.146 405.374 480.482 408.007 479.464 411.121ZM491.439 418.178L490.728 405.751L486.704 404.738L488.335 422.693L491.38 423.689L503.231 410.14L499.262 408.843L491.439 418.178ZM512.77 412.727C510.306 411.922 508.075 412.026 506.066 413.074C504.057 414.121 502.656 415.86 501.84 418.358C501.012 420.89 501.139 423.166 502.21 425.221C503.315 427.286 505.088 428.699 507.552 429.504C509.844 430.253 512.258 430.285 514.781 429.632L514.413 426.936C512.458 427.472 510.579 427.426 508.765 426.833C505.891 425.894 504.329 423.489 504.79 420.572L517.108 424.598C518.299 421.882 518.49 419.444 517.726 417.263C516.962 415.082 515.302 413.555 512.77 412.727ZM505.618 418.154C506.936 415.858 509.264 414.876 511.728 415.682C514.226 416.498 515.377 418.654 514.572 421.118L505.618 418.154ZM521.522 427.859C519.982 427.355 518.62 428.046 518.117 429.586C517.658 430.989 518.201 432.227 519.639 432.811C518.963 434.067 517.945 435.211 516.619 436.255L517.879 437.5C520.556 435.913 522.297 433.831 523.147 431.23C523.65 429.69 522.994 428.34 521.522 427.859ZM548.645 419.983C549.398 420.229 550.117 420.691 550.77 421.359L552.852 419.161C551.752 418.006 550.507 417.183 549.104 416.724C545.853 415.662 542.912 416.897 541.804 420.285L541.078 422.509L538.99 421.827L538.006 424.838L540.093 425.52L535.933 438.25L539.492 439.413L543.652 426.683L547.108 427.813L548.366 424.891L544.636 423.672L545.296 421.653C545.833 420.011 547.173 419.502 548.645 419.983ZM558.584 427.7C556.12 426.895 553.89 426.999 551.881 428.047C549.872 429.095 548.47 430.833 547.654 433.331C546.826 435.864 546.954 438.14 548.024 440.194C549.129 442.259 550.902 443.672 553.366 444.477C555.659 445.227 558.072 445.258 560.596 444.606L560.227 441.91C558.272 442.445 556.394 442.399 554.58 441.806C551.706 440.867 550.143 438.462 550.604 435.545L562.923 439.571C564.114 436.855 564.304 434.418 563.54 432.236C562.776 430.055 561.116 428.528 558.584 427.7ZM551.432 433.127C552.751 430.831 555.079 429.85 557.543 430.655C560.041 431.471 561.192 433.628 560.387 436.091L551.432 433.127ZM576.562 433.576C574.099 432.771 571.868 432.875 569.859 433.923C567.85 434.97 566.449 436.709 565.632 439.207C564.805 441.739 564.932 444.015 566.003 446.07C567.108 448.135 568.881 449.548 571.344 450.353C573.637 451.102 576.051 451.134 578.574 450.481L578.205 447.785C576.25 448.321 574.372 448.275 572.558 447.682C569.684 446.743 568.121 444.338 568.582 441.421L580.901 445.447C582.092 442.731 582.283 440.293 581.518 438.112C580.754 435.931 579.095 434.404 576.562 433.576ZM569.411 439.003C570.729 436.707 573.057 435.725 575.521 436.531C578.019 437.347 579.17 439.503 578.365 441.967L569.411 439.003ZM585.544 454.464L593.003 431.64L589.31 430.887L581.985 453.3L585.544 454.464ZM119.831 328.492C117.744 327.809 115.866 327.991 114.256 329.094L114.664 326.803L111.393 326.15L106.215 341.994L109.774 343.157L112.715 334.157C113.509 331.728 115.336 330.772 117.663 331.533C119.99 332.293 120.888 334.064 120.117 336.425L117.131 345.561L120.724 346.736L123.989 336.744C125.197 333.048 123.527 329.699 119.831 328.492ZM138.663 350.591C140.672 349.544 142.085 347.771 142.901 345.273C143.718 342.775 143.625 340.51 142.622 338.478C141.62 336.446 139.881 335.045 137.418 334.239C134.954 333.434 132.712 333.573 130.669 334.609C128.66 335.657 127.259 337.396 126.442 339.894C125.626 342.392 125.719 344.656 126.721 346.688C127.758 348.732 129.496 350.133 131.96 350.938C134.424 351.743 136.655 351.639 138.663 350.591ZM139.4 344.166C138.416 347.178 135.782 348.514 133.011 347.608C131.608 347.149 130.624 346.335 130.036 345.121C129.448 343.906 129.406 342.529 129.921 341.068C130.939 337.955 133.572 336.619 136.31 337.513C139.082 338.419 140.418 341.052 139.4 344.166ZM157.976 340.958C155.546 340.164 153.475 340.359 151.774 341.507L154.693 332.576L151 331.823L143.675 354.237L146.823 355.266L147.273 354.352C148.226 355.724 149.575 356.695 151.32 357.266C153.887 358.104 156.197 357.988 158.24 356.952C160.329 355.892 161.787 354.096 162.614 351.564C163.42 349.1 163.384 346.892 162.542 344.95C161.699 343.008 160.2 341.685 157.976 340.958ZM152.155 354.016C150.342 353.423 149.164 352.508 148.576 351.294L150.041 346.811C150.924 344.108 153.354 342.932 156.091 343.827C158.795 344.71 159.903 347.345 158.919 350.356C157.812 353.744 155.338 355.056 152.155 354.016ZM177.227 363.195C179.235 362.147 180.648 360.374 181.464 357.876C182.281 355.378 182.188 353.113 181.185 351.081C180.183 349.049 178.444 347.648 175.981 346.843C173.517 346.037 171.275 346.176 169.232 347.212C167.223 348.26 165.822 349.999 165.005 352.497C164.189 354.995 164.282 357.26 165.284 359.292C166.321 361.335 168.059 362.736 170.523 363.541C172.987 364.347 175.218 364.243 177.227 363.195ZM177.963 356.77C176.979 359.781 174.345 361.117 171.574 360.211C170.171 359.753 169.187 358.939 168.599 357.724C168.011 356.509 167.969 355.132 168.484 353.672C169.502 350.558 172.135 349.222 174.873 350.117C177.645 351.022 178.981 353.656 177.963 356.77ZM199.022 355.812C198.036 354.543 196.71 353.617 194.999 353.058C192.467 352.231 190.156 352.347 188.102 353.418C186.059 354.454 184.635 356.261 183.796 358.828C183.002 361.257 183.038 363.466 183.881 365.407C184.723 367.349 186.256 368.683 188.412 369.388C190.842 370.182 192.97 370.044 194.831 368.986L194.523 370.855L197.705 371.895L205.165 349.071L201.437 348.307L199.022 355.812ZM190.377 366.621C187.673 365.738 186.508 363.047 187.526 359.933C188.566 356.75 191.312 355.3 194.426 356.318C195.897 356.798 197.041 357.703 197.926 359.052L196.304 364.014C195.499 366.478 193.148 367.527 190.377 366.621ZM210.421 371.127L209.411 357.996L205.386 356.983L207.312 374.732L201.838 380.934L205.499 382.131L222.461 362.564L218.492 361.267L210.421 371.127ZM245.314 381.811L245.268 370.017L242.53 369.123L235.494 378.716L235.741 366.601L231.785 365.611L231.945 383.085L235.161 384.137L242.109 375.045L242.347 386.485L245.564 387.536L255.978 373.518L252.077 372.243L245.314 381.811ZM261.882 371.736C263.217 372.172 264.375 371.642 264.766 370.444C265.18 369.178 264.57 368.032 263.235 367.595C261.867 367.148 260.663 367.702 260.249 368.968C259.858 370.165 260.514 371.289 261.882 371.736ZM257.387 391.4L262.531 375.66L258.973 374.497L253.828 390.237L257.387 391.4ZM265.73 394.127L273.189 371.303L269.496 370.551L262.171 392.964L265.73 394.127ZM273.55 396.683L281.009 373.859L277.316 373.106L269.991 395.52L273.55 396.683ZM300.84 405.602L297.778 394.11L305.573 389.727L301.33 388.34L292.887 392.966L297.383 379.21L293.69 378.458L286.365 400.871L289.924 402.034L291.322 397.757L294.567 395.939L296.733 404.26L300.84 405.602ZM316.924 392.906C314.836 392.224 312.959 392.406 311.349 393.508L311.757 391.217L308.485 390.565L303.307 406.408L306.866 407.571L309.807 398.572C310.601 396.142 312.429 395.187 314.756 395.947C317.082 396.708 317.981 398.478 317.209 400.839L314.223 409.976L317.816 411.15L321.082 401.158C322.29 397.463 320.619 394.114 316.924 392.906ZM335.756 415.006C337.765 413.958 339.178 412.185 339.994 409.687C340.81 407.189 340.717 404.924 339.715 402.892C338.713 400.86 336.974 399.459 334.51 398.654C332.046 397.849 329.804 397.987 327.761 399.024C325.752 400.071 324.351 401.81 323.535 404.308C322.718 406.806 322.811 409.071 323.814 411.103C324.85 413.146 326.589 414.547 329.053 415.353C331.516 416.158 333.747 416.054 335.756 415.006ZM336.492 408.581C335.508 411.592 332.875 412.928 330.103 412.022C328.7 411.564 327.716 410.75 327.129 409.535C326.541 408.32 326.499 406.943 327.014 405.483C328.031 402.369 330.665 401.033 333.402 401.928C336.174 402.834 337.51 405.467 336.492 408.581ZM357.26 418.398L357.214 406.604L354.476 405.709L347.44 415.302L347.688 403.188L343.732 402.198L343.891 419.672L347.108 420.723L354.056 411.632L354.294 423.072L357.51 424.123L367.924 410.105L364.023 408.83L357.26 418.398ZM386.406 415.614C383.942 414.809 381.711 414.913 379.702 415.961C377.693 417.009 376.292 418.748 375.476 421.246C374.648 423.778 374.775 426.054 375.846 428.108C376.951 430.174 378.724 431.586 381.188 432.392C383.48 433.141 385.894 433.172 388.418 432.52L388.049 429.824C386.094 430.359 384.215 430.313 382.402 429.72C379.527 428.781 377.965 426.377 378.426 423.46L390.745 427.486C391.935 424.769 392.126 422.332 391.362 420.151C390.598 417.969 388.938 416.442 386.406 415.614ZM379.254 421.041C380.573 418.745 382.901 417.764 385.364 418.569C387.862 419.386 389.013 421.542 388.208 424.006L379.254 421.041ZM402.286 429.591L410.336 423.966L406.435 422.691L401.186 426.353L398.996 419.957L394.801 418.888L398.044 428.318L389.314 434.517L393.147 435.77L399.144 431.556L401.53 438.51L405.808 439.908L402.286 429.591ZM422.472 427.402C420.008 426.596 417.88 426.734 416.099 427.781L416.552 425.467L413.269 424.849L405.832 447.604L409.536 448.322L411.93 441C412.916 442.269 414.242 443.195 415.953 443.754C418.451 444.57 420.727 444.443 422.782 443.372C424.836 442.301 426.294 440.505 427.133 437.939C427.927 435.509 427.891 433.301 427.037 431.394C426.195 429.452 424.696 428.129 422.472 427.402ZM416.515 440.529C415.078 440.059 413.9 439.144 412.981 437.783L414.603 432.821C415.397 430.392 417.792 429.319 420.53 430.214C423.267 431.108 424.433 433.8 423.415 436.913C422.375 440.096 419.629 441.546 416.515 440.529ZM440.441 433.274C437.977 432.469 435.746 432.573 433.737 433.621C431.728 434.669 430.327 436.408 429.511 438.906C428.683 441.438 428.81 443.714 429.881 445.768C430.986 447.834 432.759 449.246 435.223 450.051C437.515 450.801 439.929 450.832 442.453 450.18L442.084 447.484C440.129 448.019 438.25 447.973 436.437 447.38C433.562 446.441 432 444.037 432.461 441.12L444.78 445.146C445.97 442.429 446.161 439.992 445.397 437.81C444.633 435.629 442.973 434.102 440.441 433.274ZM433.289 438.701C434.608 436.405 436.936 435.424 439.399 436.229C441.897 437.045 443.048 439.202 442.243 441.666L433.289 438.701ZM453.007 455.826C455.163 456.53 457.417 456.586 459.759 456.025L459.296 452.806C457.568 453.226 455.986 453.201 454.514 452.72C451.469 451.725 450.11 449.046 451.105 446.001C452.1 442.955 454.79 441.562 457.836 442.557C459.307 443.038 460.599 443.953 461.745 445.312L464.02 442.988C462.461 441.153 460.609 439.866 458.453 439.161C455.955 438.345 453.724 438.449 451.716 439.497C449.718 440.51 448.305 442.283 447.478 444.815C446.661 447.313 446.754 449.578 447.757 451.61C448.77 453.608 450.509 455.009 453.007 455.826ZM472.651 458.232C471.787 458.442 471.002 458.412 470.215 458.155C468.743 457.674 468.316 456.549 468.886 454.804L471.357 447.242L475.703 448.662L476.858 445.707L472.342 444.231L473.874 439.543L470.58 438.959L468.783 443.067L466.184 442.559L465.301 445.262L467.799 446.079L465.294 453.744C464.164 457.2 465.432 459.925 468.615 460.965C470.052 461.434 471.509 461.494 473.033 461.121L472.651 458.232ZM491.189 462.889L490.179 449.757L486.154 448.745L488.08 466.493L482.606 472.696L486.268 473.892L503.229 454.325L499.26 453.028L491.189 462.889ZM513.567 473.119C515.576 472.071 516.988 470.298 517.805 467.8C518.621 465.302 518.528 463.037 517.526 461.005C516.524 458.973 514.785 457.572 512.321 456.767C509.857 455.961 507.615 456.1 505.572 457.136C503.563 458.184 502.162 459.923 501.346 462.421C500.529 464.919 500.622 467.184 501.625 469.216C502.661 471.259 504.4 472.66 506.864 473.465C509.327 474.271 511.558 474.166 513.567 473.119ZM514.303 466.694C513.319 469.705 510.686 471.041 507.914 470.135C506.511 469.676 505.527 468.863 504.94 467.648C504.352 466.433 504.31 465.056 504.825 463.596C505.842 460.482 508.476 459.146 511.213 460.04C513.985 460.946 515.321 463.58 514.303 466.694ZM531.327 473.469C530.533 475.899 528.74 476.866 526.413 476.105C524.086 475.345 523.21 473.505 524.004 471.076L527.035 461.803L523.352 460.902L520.143 470.723C518.89 474.555 520.515 477.927 524.245 479.146C526.366 479.839 528.221 479.612 529.842 478.476L529.569 480.356L532.717 481.385L537.861 465.644L534.268 464.47L531.327 473.469ZM538.921 483.943C540.393 484.423 541.709 483.755 542.19 482.284C542.682 480.778 542.025 479.428 540.554 478.947C539.014 478.443 537.652 479.134 537.16 480.64C536.679 482.111 537.381 483.439 538.921 483.943ZM547.242 486.662C548.713 487.143 550.03 486.475 550.511 485.003C551.003 483.498 550.346 482.147 548.875 481.666C547.335 481.163 545.973 481.854 545.481 483.36C545 484.831 545.702 486.159 547.242 486.662ZM555.563 489.381C557.034 489.862 558.351 489.194 558.832 487.723C559.324 486.217 558.667 484.866 557.196 484.386C555.656 483.882 554.294 484.573 553.802 486.079C553.321 487.55 554.023 488.878 555.563 489.381ZM584.52 475.894C585.272 476.14 585.992 476.602 586.645 477.27L588.727 475.072C587.627 473.917 586.381 473.093 584.979 472.635C581.728 471.573 578.786 472.808 577.679 476.196L576.952 478.42L574.865 477.738L573.881 480.749L575.968 481.431L571.808 494.16L575.367 495.324L579.527 482.594L582.983 483.724L584.241 480.802L580.511 479.583L581.171 477.564C581.708 475.921 583.048 475.413 584.52 475.894ZM594.459 483.611C591.995 482.806 589.764 482.91 587.756 483.958C585.747 485.006 584.345 486.744 583.529 489.242C582.701 491.774 582.828 494.051 583.899 496.105C585.004 498.17 586.777 499.583 589.241 500.388C591.534 501.138 593.947 501.169 596.471 500.517L596.102 497.821C594.147 498.356 592.268 498.31 590.455 497.717C587.58 496.778 586.018 494.373 586.479 491.456L598.798 495.482C599.989 492.766 600.179 490.329 599.415 488.147C598.651 485.966 596.991 484.439 594.459 483.611ZM587.307 489.038C588.626 486.742 590.954 485.761 593.418 486.566C595.915 487.382 597.067 489.538 596.261 492.002L587.307 489.038ZM612.437 489.487C609.973 488.682 607.743 488.786 605.734 489.834C603.725 490.881 602.323 492.62 601.507 495.118C600.679 497.65 600.807 499.926 601.877 501.981C602.983 504.046 604.755 505.459 607.219 506.264C609.512 507.013 611.925 507.045 614.449 506.392L614.08 503.696C612.125 504.231 610.247 504.186 608.433 503.593C605.559 502.653 603.996 500.249 604.457 497.332L616.776 501.358C617.967 498.642 618.157 496.204 617.393 494.023C616.629 491.842 614.969 490.314 612.437 489.487ZM605.285 494.914C606.604 492.618 608.932 491.636 611.396 492.442C613.894 493.258 615.045 495.414 614.24 497.878L605.285 494.914ZM621.419 510.374L628.878 487.551L625.185 486.798L617.86 509.211L621.419 510.374ZM102.355 379.995C101.963 381.192 100.793 381.643 99.322 381.162C97.8506 380.682 96.1817 379.53 94.395 377.696L92.2112 379.975C94.0104 382.002 96.0221 383.379 98.2806 384.117C101.942 385.314 104.986 384.112 105.937 381.203C106.787 378.603 105.729 376.856 102.768 374.676L101.59 373.874C100.15 372.836 99.7127 372.087 100.015 371.163C100.361 370.102 101.498 369.754 102.901 370.212C104.372 370.693 105.653 371.642 106.72 373.013L108.779 370.884C107.392 369.218 105.654 368.045 103.499 367.34C100.111 366.233 97.2032 367.366 96.2973 370.137C95.5257 372.498 96.526 374.189 99.3498 376.21L100.493 377C102.116 378.175 102.668 379.037 102.355 379.995ZM124.269 375.757C123.43 374.384 122.115 373.424 120.301 372.832C117.735 371.993 115.39 372.098 113.313 373.123C111.236 374.148 109.778 375.944 108.95 378.477C108.134 380.975 108.135 383.172 108.978 385.114C109.82 387.055 111.354 388.39 113.509 389.094C115.802 389.844 118.271 389.59 119.972 388.442L119.62 390.561L122.768 391.59L127.913 375.849L124.764 374.82L124.269 375.757ZM115.496 386.259C112.793 385.376 111.628 382.798 112.623 379.753C113.663 376.57 116.455 375.097 119.501 376.092C121.178 376.64 122.344 377.476 123.079 378.587L121.547 383.275C120.663 385.978 118.268 387.165 115.496 386.259ZM140.93 375.104C141.682 375.35 142.402 375.813 143.055 376.481L145.137 374.283C144.037 373.128 142.792 372.304 141.389 371.846C138.138 370.783 135.196 372.019 134.089 375.406L133.362 377.63L131.275 376.948L130.291 379.96L132.378 380.642L128.218 393.371L131.777 394.534L135.937 381.805L139.393 382.934L140.651 380.013L136.921 378.794L137.581 376.775C138.118 375.132 139.458 374.623 140.93 375.104ZM150.869 382.822C148.405 382.017 146.174 382.121 144.166 383.169C142.157 384.216 140.755 385.955 139.939 388.453C139.111 390.985 139.238 393.261 140.309 395.316C141.414 397.381 143.187 398.794 145.651 399.599C147.944 400.348 150.357 400.38 152.881 399.727L152.512 397.031C150.557 397.566 148.678 397.521 146.865 396.928C143.99 395.988 142.428 393.584 142.889 390.667L155.208 394.693C156.399 391.977 156.589 389.539 155.825 387.358C155.061 385.177 153.401 383.649 150.869 382.822ZM143.717 388.249C145.036 385.953 147.364 384.971 149.828 385.776C152.326 386.593 153.477 388.749 152.671 391.213L143.717 388.249ZM175.16 405.191C174.296 405.401 173.51 405.371 172.723 405.114C171.252 404.633 170.824 403.508 171.394 401.763L173.866 394.201L178.212 395.621L179.367 392.666L174.85 391.19L176.382 386.502L173.089 385.918L171.291 390.027L168.693 389.518L167.809 392.221L170.307 393.038L167.802 400.703C166.673 404.159 167.941 406.884 171.123 407.924C172.56 408.393 174.018 408.453 175.541 408.08L175.16 405.191ZM191.314 411.985C193.322 410.937 194.735 409.164 195.551 406.666C196.368 404.168 196.275 401.903 195.273 399.871C194.27 397.84 192.531 396.438 190.068 395.633C187.604 394.828 185.362 394.966 183.319 396.003C181.31 397.05 179.909 398.789 179.092 401.287C178.276 403.785 178.369 406.05 179.371 408.082C180.408 410.125 182.146 411.526 184.61 412.332C187.074 413.137 189.305 413.033 191.314 411.985ZM192.05 405.56C191.066 408.571 188.432 409.907 185.661 409.001C184.258 408.543 183.274 407.729 182.686 406.514C182.098 405.299 182.056 403.922 182.571 402.462C183.589 399.348 186.222 398.012 188.96 398.907C191.732 399.813 193.068 402.446 192.05 405.56ZM221.774 418.304L221.727 406.51L218.99 405.615L211.954 415.208L212.201 403.094L208.245 402.104L208.404 419.578L211.621 420.629L218.569 411.538L218.807 422.978L222.024 424.029L232.438 410.011L228.537 408.736L221.774 418.304ZM243.057 412.951C240.867 412.235 238.979 412.565 237.404 413.906L237.924 411.273L234.642 410.655L229.475 426.464L233.033 427.627L235.606 419.757C236.579 416.78 238.815 415.617 241.689 416.556C242.065 416.679 242.522 416.904 243.07 417.197L244.609 413.648C244.198 413.4 243.707 413.163 243.057 412.951ZM250.472 412.193C251.807 412.629 252.965 412.099 253.356 410.901C253.77 409.635 253.16 408.489 251.825 408.053C250.457 407.605 249.253 408.159 248.839 409.425C248.448 410.623 249.104 411.746 250.472 412.193ZM245.977 431.858L251.121 416.117L247.563 414.954L242.418 430.694L245.977 431.858ZM261.075 433.27C260.211 433.479 259.425 433.45 258.638 433.193C257.167 432.712 256.739 431.587 257.309 429.842L259.781 422.28L264.126 423.7L265.282 420.745L260.765 419.269L262.297 414.581L259.003 413.996L257.206 418.105L254.607 417.597L253.724 420.3L256.222 421.117L253.717 428.782C252.587 432.238 253.855 434.963 257.038 436.003C258.475 436.472 259.933 436.532 261.456 436.159L261.075 433.27ZM275.948 423.701C273.484 422.895 271.254 423 269.245 424.047C267.236 425.095 265.834 426.834 265.018 429.332C264.19 431.864 264.318 434.14 265.389 436.194C266.494 438.26 268.266 439.672 270.73 440.478C273.023 441.227 275.437 441.258 277.96 440.606L277.591 437.91C275.636 438.445 273.758 438.399 271.944 437.807C269.07 436.867 267.507 434.463 267.968 431.546L280.287 435.572C281.478 432.855 281.668 430.418 280.904 428.237C280.14 426.055 278.48 424.528 275.948 423.701ZM268.796 429.127C270.115 426.831 272.443 425.85 274.907 426.655C277.405 427.472 278.556 429.628 277.751 432.092L268.796 429.127ZM282.933 444.466C284.405 444.947 285.722 444.279 286.202 442.807C286.695 441.302 286.038 439.951 284.566 439.47C283.026 438.967 281.664 439.658 281.172 441.163C280.691 442.635 281.394 443.963 282.933 444.466ZM291.254 447.185C292.726 447.666 294.042 446.998 294.523 445.527C295.015 444.021 294.358 442.67 292.887 442.189C291.347 441.686 289.985 442.377 289.493 443.883C289.012 445.354 289.714 446.682 291.254 447.185ZM299.575 449.905C301.046 450.386 302.363 449.718 302.844 448.246C303.336 446.741 302.679 445.39 301.208 444.909C299.668 444.406 298.306 445.097 297.814 446.602C297.333 448.074 298.035 449.402 299.575 449.905Z" fill="#2F373A"/>
</svg>
